<?xml version="1.0" encoding="UTF-8"?>
<svg version="1.1" xmlns="http://www.w3.org/2000/svg" width="100" height="100">
<path d="M0 0 C0.97498947 -0.01283524 1.94997894 -0.02567047 2.95451355 -0.03889465 C4.53417656 -0.04997505 4.53417656 -0.04997505 6.14575195 -0.0612793 C7.23233597 -0.06935104 8.31891998 -0.07742279 9.43843079 -0.08573914 C11.74083868 -0.09957692 14.04326707 -0.11030044 16.34570312 -0.11816406 C19.85302071 -0.13534612 23.35938815 -0.17923273 26.86645508 -0.22338867 C29.10538045 -0.23351856 31.34431383 -0.24203373 33.58325195 -0.2487793 C34.62623947 -0.26628738 35.66922699 -0.28379547 36.74382019 -0.30183411 C43.01211174 -0.28332459 48.0390942 0.39287412 53.1965332 4.17700195 C56.7924029 8.69488952 58.30785725 12.25977228 58.37353516 17.98046875 C58.39278801 19.44295296 58.39278801 19.44295296 58.41242981 20.9349823 C58.41981674 21.98809097 58.42720367 23.04119965 58.43481445 24.1262207 C58.4428862 25.21280472 58.45095795 26.29938873 58.45927429 27.41889954 C58.47311208 29.72130743 58.4838356 32.02373582 58.49169922 34.32617188 C58.50888128 37.83348946 58.55276789 41.3398569 58.59692383 44.84692383 C58.60705371 47.0858492 58.61556889 49.32478258 58.62231445 51.5637207 C58.63982254 52.60670822 58.65733063 53.64969574 58.67536926 54.72428894 C58.65685974 60.99258049 57.98066104 66.01956295 54.1965332 71.17700195 C49.67864564 74.77287165 46.11376287 76.288326 40.39306641 76.35400391 C39.41807693 76.36683914 38.44308746 76.37967438 37.43855286 76.39289856 C35.85888985 76.40397896 35.85888985 76.40397896 34.24731445 76.4152832 C33.16073044 76.42335495 32.07414642 76.4314267 30.95463562 76.43974304 C28.65222772 76.45358083 26.34979933 76.46430435 24.04736328 76.47216797 C20.5400457 76.48935003 17.03367826 76.53323664 13.52661133 76.57739258 C11.28768596 76.58752246 9.04875258 76.59603764 6.80981445 76.6027832 C5.76682693 76.62029129 4.72383942 76.63779938 3.64924622 76.65583801 C-2.61904534 76.63732849 -7.64602779 75.96112979 -12.8034668 72.17700195 C-16.39933649 67.65911439 -17.91479085 64.09423162 -17.98046875 58.37353516 C-17.99330399 57.39854568 -18.00613922 56.42355621 -18.0193634 55.41902161 C-18.02675034 54.36591293 -18.03413727 53.31280426 -18.04174805 52.2277832 C-18.04981979 51.14119919 -18.05789154 50.05461517 -18.06620789 48.93510437 C-18.08004567 46.63269647 -18.09076919 44.33026808 -18.09863281 42.02783203 C-18.11581487 38.52051445 -18.15970148 35.01414701 -18.20385742 31.50708008 C-18.21398731 29.26815471 -18.22250248 27.02922133 -18.22924805 24.7902832 C-18.24675613 23.74729568 -18.26426422 22.70430817 -18.28230286 21.62971497 C-18.26379334 15.36142341 -17.58759463 10.33444096 -13.8034668 5.17700195 C-9.28557923 1.58113226 -5.72069647 0.0656779 0 0 Z " fill="#C95E80" transform="translate(29.803466796875,11.822998046875)"/>
<path d="M0 0 C2.22556211 -0.00968583 4.4501924 -0.04071094 6.67553711 -0.07226562 C8.10066186 -0.07879834 9.52579319 -0.08404776 10.95092773 -0.08789062 C12.2410376 -0.09723633 13.53114746 -0.10658203 14.86035156 -0.11621094 C20.03479364 0.40027812 23.2681699 1.95125357 26.74389648 5.80273438 C29.50808302 9.79544826 29.60545383 12.70560683 29.63452148 17.44335938 C29.64022156 18.15876892 29.64592163 18.87417847 29.65179443 19.61126709 C29.66124718 21.12771119 29.66777951 22.64417586 29.67163086 24.16064453 C29.68130116 26.46749411 29.71230545 28.77343907 29.74389648 31.08007812 C29.75043037 32.55533327 29.75567933 34.03059477 29.75952148 35.50585938 C29.77186829 36.19045227 29.78421509 36.87504517 29.79693604 37.5803833 C29.77571401 42.20350839 28.84677673 45.31073517 26.43139648 49.24023438 C19.91747389 55.26561277 13.23562877 54.45839867 4.86279297 54.48046875 C2.63723086 54.49015458 0.41260057 54.52117969 -1.81274414 54.55273438 C-3.23786889 54.55926709 -4.66300022 54.56451651 -6.08813477 54.56835938 C-7.37824463 54.57770508 -8.66835449 54.58705078 -9.99755859 54.59667969 C-15.13947268 54.08343743 -18.38187445 52.52318472 -21.88110352 48.74023438 C-24.70960044 44.54986856 -24.75440389 40.82403784 -24.80688477 35.93945312 C-24.81495651 35.22545853 -24.82302826 34.51146393 -24.8313446 33.77583313 C-24.84516232 32.26537487 -24.85589481 30.7548857 -24.86376953 29.24438477 C-24.87528603 27.70522872 -24.89573299 26.16611252 -24.92529297 24.62719727 C-24.96810861 22.39767451 -24.98415673 20.1693367 -24.99438477 17.93945312 C-25.01189285 17.25799728 -25.02940094 16.57654144 -25.04743958 15.87443542 C-25.02495785 10.87525093 -23.65781789 8.10794082 -20.56860352 4.24023438 C-14.59078915 -1.01299643 -7.50190158 0.01977437 0 0 Z " fill="#FD7149" transform="translate(47.568603515625,22.759765625)"/>
<path d="M0 0 C2.17300022 -0.00968252 4.34504502 -0.04069388 6.51782227 -0.07226562 C7.90518645 -0.07879831 9.29255739 -0.08404774 10.67993164 -0.08789062 C11.93974854 -0.09723633 13.19956543 -0.10658203 14.49755859 -0.11621094 C19.04392661 0.36301058 21.44339686 1.83448225 24.66674805 4.99047852 C26.3658952 8.1434469 26.2678934 10.66667791 26.27758789 14.23632812 C26.28045807 14.90688736 26.28332825 15.57744659 26.2862854 16.26832581 C26.2883216 17.68288012 26.28282269 19.09746287 26.27026367 20.51196289 C26.25422671 22.66747627 26.27011204 24.82110778 26.28930664 26.9765625 C26.28732363 28.35482182 26.28347877 29.73307997 26.27758789 31.11132812 C26.2742041 32.35841553 26.27082031 33.60550293 26.26733398 34.89038086 C25.73684806 39.46824081 24.09332739 42.02605738 20.87915039 45.24023438 C17.96979459 45.38541181 15.15920439 45.42654233 12.25415039 45.36523438 C11.45235352 45.35621094 10.65055664 45.3471875 9.82446289 45.33789062 C7.84256516 45.3142966 5.86082058 45.27842502 3.87915039 45.24023438 C3.87915039 42.93023437 3.87915039 40.62023437 3.87915039 38.24023438 C4.4940332 37.93730469 5.10891602 37.634375 5.74243164 37.32226562 C12.24785432 34.15531108 12.24785432 34.15531108 15.87915039 28.24023438 C16.49073746 23.04958514 16.76518745 18.79079922 14.12915039 14.17773438 C9.43268837 10.13355874 5.58615182 9.798241 -0.49194336 9.92773438 C-4.14881266 10.36242909 -5.75950592 11.43613875 -8.12084961 14.24023438 C-9.78943131 17.14480253 -11.00158443 19.856882 -11.99584961 23.05273438 C-12.36709961 23.77460937 -12.73834961 24.49648438 -13.12084961 25.24023438 C-15.74584961 26.05273438 -15.74584961 26.05273438 -18.12084961 26.24023438 C-18.45084961 28.22023438 -18.78084961 30.20023438 -19.12084961 32.24023438 C-19.45084961 32.24023438 -19.78084961 32.24023438 -20.12084961 32.24023438 C-20.26662291 28.19894985 -20.35508142 24.15834531 -20.43334961 20.11523438 C-20.47524414 18.973125 -20.51713867 17.83101562 -20.56030273 16.65429688 C-20.69844411 7.15017054 -20.69844411 7.15017054 -17.72631836 3.49804688 C-12.48213431 -1.04638848 -6.60988639 0.01785049 0 0 Z " fill="#CC5480" transform="translate(47.120849609375,26.759765625)"/>
<path d="M0 0 C2.22556211 -0.00968583 4.4501924 -0.04071094 6.67553711 -0.07226562 C8.10066186 -0.07879834 9.52579319 -0.08404776 10.95092773 -0.08789062 C12.2410376 -0.09723633 13.53114746 -0.10658203 14.86035156 -0.11621094 C20.03479364 0.40027812 23.2681699 1.95125357 26.74389648 5.80273438 C29.50808302 9.79544826 29.60545383 12.70560683 29.63452148 17.44335938 C29.64022156 18.15876892 29.64592163 18.87417847 29.65179443 19.61126709 C29.66124718 21.12771119 29.66777951 22.64417586 29.67163086 24.16064453 C29.68130116 26.46749411 29.71230545 28.77343907 29.74389648 31.08007812 C29.75043037 32.55533327 29.75567933 34.03059477 29.75952148 35.50585938 C29.77186829 36.19045227 29.78421509 36.87504517 29.79693604 37.5803833 C29.77571401 42.20350839 28.84677673 45.31073517 26.43139648 49.24023438 C19.91747389 55.26561277 13.23562877 54.45839867 4.86279297 54.48046875 C2.63723086 54.49015458 0.41260057 54.52117969 -1.81274414 54.55273438 C-3.23786889 54.55926709 -4.66300022 54.56451651 -6.08813477 54.56835938 C-7.37824463 54.57770508 -8.66835449 54.58705078 -9.99755859 54.59667969 C-15.13947268 54.08343743 -18.38187445 52.52318472 -21.88110352 48.74023438 C-24.70960044 44.54986856 -24.75440389 40.82403784 -24.80688477 35.93945312 C-24.81495651 35.22545853 -24.82302826 34.51146393 -24.8313446 33.77583313 C-24.84516232 32.26537487 -24.85589481 30.7548857 -24.86376953 29.24438477 C-24.87528603 27.70522872 -24.89573299 26.16611252 -24.92529297 24.62719727 C-24.96810861 22.39767451 -24.98415673 20.1693367 -24.99438477 17.93945312 C-25.01189285 17.25799728 -25.02940094 16.57654144 -25.04743958 15.87443542 C-25.02495785 10.87525093 -23.65781789 8.10794082 -20.56860352 4.24023438 C-14.59078915 -1.01299643 -7.50190158 0.01977437 0 0 Z M-19.56860352 9.24023438 C-21.75574742 13.61452219 -20.79570973 19.49983572 -20.80883789 24.36108398 C-20.81852041 26.53408421 -20.84953177 28.70612901 -20.88110352 30.87890625 C-20.8876362 32.26627044 -20.89288563 33.65364138 -20.89672852 35.04101562 C-20.90607422 36.30083252 -20.91541992 37.56064941 -20.92504883 38.85864258 C-20.44582731 43.40501059 -18.97435564 45.80448084 -15.81835938 49.02783203 C-12.66539099 50.72697918 -10.14215998 50.62897738 -6.57250977 50.63867188 C-5.56667091 50.64297714 -5.56667091 50.64297714 -4.54051208 50.64736938 C-3.12595777 50.64940559 -1.71137502 50.64390668 -0.296875 50.63134766 C1.85863838 50.6153107 4.01226989 50.63119603 6.16772461 50.65039062 C7.54598393 50.64840762 8.92424208 50.64456275 10.30249023 50.63867188 C11.54957764 50.63528809 12.79666504 50.6319043 14.08154297 50.62841797 C18.81304526 50.08012786 21.26155318 48.7139102 24.21459961 44.99389648 C26.4564313 39.9205378 25.94991807 34.40512817 25.93237305 28.94799805 C25.93140053 26.81161722 25.9730572 24.67883178 26.01733398 22.54296875 C26.33152174 14.45294491 26.33152174 14.45294491 23.08764648 7.33007812 C17.58473241 3.00057955 10.9731202 3.9462652 4.29003906 3.89013672 C2.84781741 3.87359488 1.40567716 3.84632724 -0.03613281 3.80810547 C-2.12681116 3.75304352 -4.21557692 3.73142283 -6.30688477 3.71679688 C-7.5551001 3.69697754 -8.80331543 3.6771582 -10.08935547 3.65673828 C-14.69559331 4.42923905 -16.28476536 5.97698743 -19.56860352 9.24023438 Z " fill="#FDFBFC" transform="translate(47.568603515625,22.759765625)"/>
<path d="M0 0 C2.8100346 1.79363911 4.50940468 3.01880935 6 6 C6.5811138 13.08958838 6.5811138 13.08958838 4.125 16.9375 C0.8698054 20.09695358 -1.42413238 20.33421243 -5.9609375 20.29296875 C-9.13134567 19.83745033 -10.8192402 18.24684343 -13 16 C-14.60086627 12.79826746 -14.49917089 9.47422941 -14 6 C-10.32759145 0.24655994 -6.71744997 -0.96515086 0 0 Z " fill="#F45154" transform="translate(54,40)"/>
<path d="M0 0 C4.04457622 2.02228811 6.61677114 4.18411789 9 8 C9.87570205 13.22265547 9.61426036 17.7259785 7.3125 22.5 C3.26154219 26.87941385 0.51474969 28.1935156 -5.4375 28.5 C-9.18276761 28.39904939 -11.60535952 28.1098855 -14.5625 25.75 C-18.91576779 20.83862095 -19.49430092 17.17032413 -19.390625 10.69921875 C-18.77567582 6.44991993 -17.14824467 4.8553847 -14 2 C-9.53353622 -0.97764252 -5.23751281 -0.61441495 0 0 Z M-14 8 C-15.60086627 11.20173254 -15.49917089 14.52577059 -15 18 C-13.20636089 20.8100346 -11.98119065 22.50940468 -9 24 C-3.18654053 24.53365513 -3.18654053 24.53365513 1.9375 22.125 C5.09695358 18.8698054 5.33421243 16.57586762 5.29296875 12.0390625 C4.83745033 8.86865433 3.24684343 7.1807598 1 5 C-4.71872108 2.14063946 -9.77770087 3.64975241 -14 8 Z " fill="#FDF5F6" transform="translate(55,36)"/>
<path d="M0 0 C2.5 2 2.5 2 4 4 C0.50772569 7.2188892 -2.60839611 7.62878842 -7.25 8.1875 C-8.51328125 8.34605469 -9.7765625 8.50460938 -11.078125 8.66796875 C-12.04234375 8.77753906 -13.0065625 8.88710938 -14 9 C-13.47699306 5.68028226 -13.2293187 4.2571149 -10.9375 1.6875 C-6.83485682 -0.66933757 -4.70041265 -0.5968778 0 0 Z " fill="#DB4D71" transform="translate(54,40)"/>
<path d="M0 0 C0.33 0.99 0.66 1.98 1 3 C5.455 2.505 5.455 2.505 10 2 C11.1482685 4.296537 11.11561175 5.58313167 11.09765625 8.1328125 C11.09443359 8.93847656 11.09121094 9.74414062 11.08789062 10.57421875 C11.07951172 11.41597656 11.07113281 12.25773437 11.0625 13.125 C11.05798828 13.97449219 11.05347656 14.82398438 11.04882812 15.69921875 C11.03702874 17.79950909 11.01909306 19.8997633 11 22 C10.67 22 10.34 22 10 22 C9.67 18.37 9.34 14.74 9 11 C7.68 10.67 6.36 10.34 5 10 C5 9.34 5 8.68 5 8 C2.525 9.485 2.525 9.485 0 11 C0 7.37 0 3.74 0 0 Z " fill="#CE4C7F" transform="translate(12,41)"/>
<path d="M0 0 C1.98 0 3.96 0 6 0 C5.01 0.495 5.01 0.495 4 1 C4 3.31 4 5.62 4 8 C8.62 8 13.24 8 18 8 C18 8.33 18 8.66 18 9 C7.77 9 -2.46 9 -13 9 C-8 5 -8 5 -4 5 C-3.67 5.99 -3.34 6.98 -3 8 C-1.35 8 0.3 8 2 8 C2 5.69 2 3.38 2 1 C1.34 0.67 0.68 0.34 0 0 Z " fill="#FF915C" transform="translate(47,64)"/>
<path d="M0 0 C0 1.65 0 3.3 0 5 C-1.98 5.66 -3.96 6.32 -6 7 C-6.33 8.98 -6.66 10.96 -7 13 C-7.33 13 -7.66 13 -8 13 C-8 8.71 -8 4.42 -8 0 C-3 -1 -3 -1 0 0 Z " fill="#DB516C" transform="translate(35,46)"/>
<path d="M0 0 C2.0625 0.4375 2.0625 0.4375 4 1 C4.5625 2.9375 4.5625 2.9375 5 5 C4 6 4 6 1.4375 6.0625 C0.2309375 6.0315625 0.2309375 6.0315625 -1 6 C-1.042721 4.33388095 -1.04063832 2.66617115 -1 1 C-0.67 0.67 -0.34 0.34 0 0 Z " fill="#F8EAF3" transform="translate(64,31)"/>
<path d="M0 0 C0.99 0 1.98 0 3 0 C4.50156874 3.00313748 4.09281204 5.79067522 4.0625 9.125 C4.05347656 10.40632813 4.04445313 11.68765625 4.03515625 13.0078125 C4.02355469 13.99523438 4.01195312 14.98265625 4 16 C3.67 16 3.34 16 3 16 C2.67 12.37 2.34 8.74 2 5 C0.68 4.67 -0.64 4.34 -2 4 C-1.34 2.68 -0.68 1.36 0 0 Z " fill="#E85467" transform="translate(19,47)"/>
<path d="M0 0 C-2.42764573 2.93872904 -4.27721329 3.46817333 -8 4 C-8.928125 4.185625 -9.85625 4.37125 -10.8125 4.5625 C-11.534375 4.706875 -12.25625 4.85125 -13 5 C-8.7797731 -0.27528362 -6.38501231 -0.54110274 0 0 Z " fill="#CB5382" transform="translate(54,40)"/>
<path d="M0 0 C2.33944736 0.28730055 4.6739143 0.61936779 7 1 C6.67 1.66 6.34 2.32 6 3 C3.4375 3.625 3.4375 3.625 1 4 C0.67 5.98 0.34 7.96 0 10 C-0.33 10 -0.66 10 -1 10 C-1.02689216 8.52093108 -1.04634621 7.04172517 -1.0625 5.5625 C-1.07410156 4.73878906 -1.08570312 3.91507813 -1.09765625 3.06640625 C-1 1 -1 1 0 0 Z " fill="#EE545C" transform="translate(28,49)"/>
<path d="M0 0 C1.32 0.66 2.64 1.32 4 2 C4 2.66 4 3.32 4 4 C1.69 4 -0.62 4 -3 4 C-2.01 2.68 -1.02 1.36 0 0 Z " fill="#FF9048" transform="translate(40,68)"/>
<path d="M0 0 C0.66 0.33 1.32 0.66 2 1 C-0.31 3.31 -2.62 5.62 -5 8 C-5 5 -5 5 -2.5 2.3125 C-1.675 1.549375 -0.85 0.78625 0 0 Z " fill="#7356C0" transform="translate(20,14)"/>
</svg>
