<svg width="22717" height="2611" viewBox="0 0 22717 2611" fill="none" xmlns="http://www.w3.org/2000/svg">
<path fill-rule="evenodd" clip-rule="evenodd" d="M0 897.509L238 725.509C476 554.509 952 211.509 1428 382.509C1904 554.509 2380 1239.51 2856 1411.51C3332 1582.51 3808 1239.51 4284 1068.51C4760 897.51 5236 897.51 5712 1125.51C6188 1353.51 6664 1810.51 7140 1696.51C7616 1582.51 8092 897.509 8568 782.509C9044 668.509 9520 1125.51 9996 1182.51C10472 1239.51 10948 897.509 11186 725.509L11424 554.509V2610.51H11186C10948 2610.51 10472 2610.51 9996 2610.51C9520 2610.51 9044 2610.51 8568 2610.51C8092 2610.51 7616 2610.51 7140 2610.51C6664 2610.51 6188 2610.51 5712 2610.51C5236 2610.51 4760 2610.51 4284 2610.51C3808 2610.51 3332 2610.51 2856 2610.51C2380 2610.51 1904 2610.51 1428 2610.51C952 2610.51 476 2610.51 238 2610.51H0V897.509Z" fill="url(#paint0_linear_292_112)"/>
<path fill-rule="evenodd" clip-rule="evenodd" d="M11293 644.579L11531 447.133C11769 250.836 12245 -142.908 12721 53.3901C13197 250.836 13673 1037.17 14149 1234.62C14625 1430.92 15101 1037.17 15577 840.877C16053 644.579 16529 644.579 17005 906.309C17481 1168.04 17957 1692.65 18433 1561.78C18909 1430.92 19385 644.579 19861 512.566C20337 381.701 20813 906.309 21289 971.742C21765 1037.17 22241 644.579 22479 447.133L22717 250.836V2611H22479C22241 2611 21765 2611 21289 2611C20813 2611 20337 2611 19861 2611C19385 2611 18909 2611 18433 2611C17957 2611 17481 2611 17005 2611C16529 2611 16053 2611 15577 2611C15101 2611 14625 2611 14149 2611C13673 2611 13197 2611 12721 2611C12245 2611 11769 2611 11531 2611H11293V644.579Z" fill="url(#paint1_linear_292_112)"/>
<defs>
<linearGradient id="paint0_linear_292_112" x1="7210.5" y1="2777" x2="7180" y2="550.5" gradientUnits="userSpaceOnUse">
<stop stop-color="#E5CAF9"/>
<stop offset="1" stop-color="#8A19E1"/>
</linearGradient>
<linearGradient id="paint1_linear_292_112" x1="7210.5" y1="2777" x2="7180" y2="550.5" gradientUnits="userSpaceOnUse">
<stop stop-color="#E5CAF9"/>
<stop offset="1" stop-color="#8A19E1"/>
</linearGradient>
</defs>
</svg>
